<svg xmlns="http://www.w3.org/2000/svg" width="775" height="775">
   <g transform="matrix(.83 0 0 .83 787 -274)">
      <rect
         width="369.7"
         height="210.1"
         x="-667" y="729" ry="36.4" style="fill:#fff" />
      <rect width="917.2" height="210.1" x="-942" y="687" ry="36.4" style="fill:#fff" />
      <path
         d="m-666 937-1-19-1-16-125-1h-125l-4-2c-9-4-15-12-20-24-2-4-2-161 0-166 4-14 13-23 27-27l436-1 436 2c9 4 18 13 21 23 2 4 2 10 3 84 0 79 0 80-2 86-4 11-11 19-20 23-3 2-14 2-129 2l-126 1v17c0 10-1 18-2 19l-184 1h-183l-1-2zm231-10c2-3 2-4 2-14l-1-11-2-1c-4 0-5 2-5 12v9c-1 2-4 1-4-2-1-2-1-2-4-2-2 0-3 0-3 3-1 8 11 12 17 6zm-206-4c0-7 1-7 2 0 1 5 1 5 5 5 3 0 4 0 4-2 2-7 3-7 3-2 0 4 0 4 3 4l4-1v-13l-1-12h-9l-2 8-2 7-2-8-2-7h-10v26h7v-5zm34 3c1-1 2-2 6-2s5 1 5 2c0 2 1 2 5 2 3 0 4 0 3-1l-4-12c-4-12-6-14-9-14-4 1-5 2-8 12l-5 12c-1 3-1 3 4 3 2 0 3 0 3-2zm4-11c1-1 3-3 3-1v2c1 1 0 1-1 1-2 0-2 0-2-2zm40 12c4-4 6-13 3-19-2-5-7-7-15-7-5 0-7 1-8 2v25h9l11-1zm-12-4-1-8v-6l4-1c3 0 4 0 5 3 1 4 0 9-2 11l-6 1zm44 2v-3h-7l-7-1c-2-2 0-3 5-3 6 0 8-1 8-4-1-2-1-2-8-3-9 0-8-2 1-3 6 0 7 0 7-2v-4l-11-1-10 1v26h22v-3zm28-10v-13h-3c-4-2-5 0-5 13v13h8v-13zm15 7 1-7 4 7c3 6 3 6 7 6h4v-13l-1-13h-4c-1 1-2 2-2 7l-1 6-4-7c-3-5-4-6-7-7-4 0-5 1-5 14v13h8v-6zm67 4c1-1 2-2 5-2 4 0 5 1 5 2 1 2 2 2 5 2l4-1-8-20c-2-5-2-5-5-5-4 0-4 0-8 9a120 120 0 0 0-5 14c-2 2-1 3 3 3 3 0 4 0 4-2zm3-11 2-3 1 3c1 2 1 2-1 2s-2 0-2-2zm28 9c0-4 0-4 3-4 11 0 16-9 9-16-3-3-4-3-10-3l-9 1-1 14v12h4c4 0 4 0 4-4zm0-13c0-2 0-3 3-3s4 1 4 3-1 2-4 2-3 0-3-2zm23 15c1-1 2-2 5-2 4 0 5 1 5 2 1 2 2 2 5 2l4-1-9-23c0-2-2-2-4-3-4 0-4 0-6 4a1318 1318 0 0 1-8 23h4c3 0 4 0 4-2zm4-10c0-3 2-3 3-1l-1 2-2-1zm27 5v-7l3 6c5 7 6 8 10 8h3l1-12c0-14-1-16-6-14-2 0-2 1-2 7l-1 7-4-7c-4-7-5-8-8-8s-4 3-4 16l1 11h7v-7zm286-34 9-5c8-7 8-3 8-82l-1-70-15-1-16-1-1-17-1-15h-423l-427 1c-4 3-9 8-11 12-2 5-2 160 0 165 3 7 8 11 15 13 5 2 857 2 863 0zm-822-25-30-32v-79l10-10 16-15 5-5h15l14 1 1 11-1 13-10 1h-9l-7 8-7 7v59l7 8 7 7h9c8 0 10 1 10 2l1 12c0 9-1 11-2 12h-29zm43 0c-1 0-2-15-1-25l9-1h9l7-7c7-7 8-8 8-11s-1-4-2-5l-17-1h-14v-24l28-1 30 1c2 0 2 0 2 21v21l-11 12-15 16-4 4h-12a283 283 0 0 0-17 0zm131 0h-11l-16-16-15-16V722l12-1 14 1h2v99l6 7c8 8 7 8 16 8h8v13c0 12 0 13-2 13h-14zm28 0-1-13v-13h8c8 0 8 0 18-10l5-6v-98h26l1 5v93l-1 10-15 16-15 16h-26zm87-1V722l12-1 14 1a1257 1257 0 0 1 63 78c2 3 2 36 0 37-1 2-3 1-14-14a618 618 0 0 0-29-36l-18-21-1 47-1 49-13 1c-12 0-12 0-13-2zm100 1-1-71v-69h26l1 68-1 71c0 2-1 2-12 2l-13-1zm194 0-1-14v-13h96l1 13c0 12 0 13-2 14h-94zm117-1-1-51 1-51 13-1 13 1 1 11 1 11 21 1 19 1 1 11c0 17 2 15-21 15-17 0-20 0-21 2v25l-1 25c-1 2-24 2-26 0zm83 2v-49c0-40 0-47-2-50l-7-9-6-6-26-1c-30 0-30 0-30-7 0-3 4-8 13-16l4-4h48l4 4 16 17 12 12v55l-1 54h-25zm-337-1V721h13l12 1 1 17 1 19c2 1 7 2 20 2l19 1v25h-19l-20 2-1 37-1 37h-25zm37-37-1-13 1-12 15-1h15l3-4 8-8 4-5v-19l-8-8-8-8h-14l-15-1-1-12v-12l21-1h21l11 11 15 17 5 5v18c0 15-1 19-2 21l-16 17-14 15h-40zm99-3V720l11-1 14 1h2v50l-1 52-13 1-13-1zm-507-45v-8c0-7-1-9-11-18l-3-4h-9l-10-1v-24l14-1h15l15 16 16 15v25h-27zm759-57c8-7 7-17-1-23-5-4-13-3-17 2-3 3-5 9-4 13s5 9 8 10c4 2 12 1 14-2zm-10-2v-5l1-1c0-1 4 4 4 6h-5zm-6-4c-2-2-1-9 0-11 1-1 2 0 2 6 0 7 0 9-2 5zm13-1v-4l1-3c0-4-2-5-7-5l-4-1 5-1c3 0 4 1 6 3 3 4 4 9 1 12-1 1-1 1-2-1zm-7-6c-1-2 0-3 2-3l2 2c0 1-2 2-4 1z"
         style="fill:red" />
   </g>
</svg>